<?xml version="1.0" encoding="UTF-8"?>
<svg xmlns="http://www.w3.org/2000/svg" viewBox="0 0 986.4 841.68">
  <defs>
    <style>
      .cls-1 {
        fill: none;
        stroke: #2e3a73;
        stroke-miterlimit: 100;
        stroke-width: 4px;
      }

      .cls-2 {
        fill: #3f54b6;
        stroke-width: 0px;
      }

      .cls-3 {
        isolation: isolate;
      }
    </style>
  </defs>
  <g id="Form_1" data-name="Form 1" class="cls-3">
    <g id="Form_1-2" data-name="Form 1">
      <path class="cls-2" d="M282,289.68c0-.12-.04-.08-.09.08.06.03.09.01.09-.08ZM312,661.92l-4.8-32.64-9.36-40.56-4.32-20.4-3.6-26.16-4.8-23.04-6-27.84-2.88-22.32-2.64-21.84-2.16-27.6-.72-28.08,2.16-17.76.96-19.68-2.64-.24-8.64-.48c-3.68.32-7.36.64-11.04.96-5.52.08-11.04.16-16.56.24l-13.2,3.12-15.12,2.4-11.76,3.36-11.28,3.84-12.72,5.76-29.04,12.48,9.12-5.76,12.72-6.24,12.96-6.48,17.52-6.72,15.6-4.8,17.52-3.36,18.48-1.92,13.92-.24,14.4,1.68,1.2-18.96,1.2-12.48,2.4-16.08-3.6-1.68-11.28-3.84-12.24-3.6-8.64-1.68-10.8-1.2-12-1.2-13.2-1.68-10.56-1.2,6.96-.48,12.96.24,14.64,1.2,17.04,2.88,18,4.8,13.44,5.04s1.88-10.55,2.31-11.92c-.7-.37-5.43-8.72-5.43-8.72l-3.36-7.92-7.68-19.92-4.56-9.6-4.32-8.64-6.48-6.96-5.52-4.08-8.88-5.28-9.6-3.6-.96-1.92,11.04,2.88,10.32,6.72,10.56,8.64,6.24,9.36,3.36,6.72,4.32,12,6.24,14.88,5.52,12.72.96-2.64c.08-2.24.16-4.48.24-6.72.17-1.65.87-2.75,1.76-2.98.3-.08.89.02,1.6.34.59.26,1.15.58,1.68.96l.48-3.36-1.92-12c-.24-3.04-.48-6.08-.72-9.12.08.05-1.13-19.4-1.2-19.44-.72-3.84-1.44-7.68-2.16-11.52-.56-2.64-1.12-5.28-1.68-7.92l-1.68-3.12-4.56-6.96c.33.07-8.94-10.09-10.08-10.32l-5.52-3.36c-5.44-1.68-10.88-3.36-16.32-5.04-5.12-.4-10.24-.8-15.36-1.2l-10.8.48-9.36.96-17.28,4.8c-4.72,1.68-9.44,3.36-14.16,5.04-4.64,1.68-9.28,3.36-13.92,5.04l-12,6c-3.2,1.6-6.4,3.2-9.6,4.8l-3.84,3.84c-1.2,1.84-2.4,3.68-3.6,5.52-.08,2.56-.16,5.12-.24,7.68.32,2.64.64,5.28.96,7.92l3.84,5.28,5.28-7.2,7.68-5.28,10.8-4.8,12.72-2.4,13.68,1.44,10.56,2.16,9.84,5.76,8.16,8.64,5.52,11.04,3.36,11.04,1.44,10.08-.96,5.76-3.84,3.12-5.28-.24-12.96-3.12-12.96-2.88-14.16-4.8-12.24-5.52-12.24-5.76c-3.68-1.68-7.36-3.36-11.04-5.04-1.52.24-3.04.48-4.56.72l-6,3.36-8.88,8.88-15.6,11.28c-4.8,2.8-9.6,5.6-14.4,8.4-4.4,3.04-8.8,6.08-13.2,9.12-1.48,2.04-2.62,4.31-3.36,6.72-.81,2.64-1.14,5.4-.96,8.16l11.76,45.6c3.92-3.28,7.84-6.56,11.76-9.84,12.64-6.56,25.28-13.12,37.92-19.68l29.76-5.04,20.16.48,15.84,2.4,5.52,3.84,3.84,5.76-.96,5.28-3.84,1.44-24.24,2.88c-8.24,1.12-16.48,2.24-24.72,3.36-8.16,1.36-16.32,2.72-24.48,4.08-6.65,2.65-13.31,5.29-19.96,7.94-.39.15-.77.31-1.16.46-4.64,2.48-9.28,4.96-13.92,7.44-3.84,2.64-7.68,5.28-11.52,7.92-2.16,2.72-4.32,5.44-6.48,8.16-1.1,2.32-1.98,4.72-2.64,7.2-.92,3.45-1.4,6.98-1.44,10.56-.48,3.18-.56,6.4-.24,9.6.34,3.46,1.15,6.84,2.4,10.08,2.8,6.4,5.6,12.8,8.4,19.2,3.76,6.72,7.52,13.44,11.28,20.16,3.68,4.32,7.36,8.64,11.04,12.96,3.68,3.44,7.36,6.88,11.04,10.32l1.2-7.92,2.64-13.2,4.56-12.48,6.24-10.08,9.6-12,10.56-10.56,11.76-9.12c2.72-1.12,5.44-2.24,8.16-3.36,2.48-.16,4.96-.32,7.44-.48,2.71-.39,5.44-.47,8.16-.24,3.03.26,6.01.9,8.88,1.92,2.64,1.12,5.28,2.24,7.92,3.36,1.44.88,2.88,1.76,4.32,2.64.8,1.44,1.6,2.88,2.4,4.32-.08,1.12-.16,2.24-.24,3.36l-9.36,8.4-17.76,11.76-20.88,14.64-28.56,18.96s-10.4,8.17-14.84,11.66c-1.2.94-1.96,1.54-1.96,1.54l-7.44,11.28-11.28,24.72-8.16,25.92,5.28.24,14.88,4.08,17.52,10.32c5.68,3.68,11.36,7.36,17.04,11.04,2.96,4.64,5.92,9.28,8.88,13.92l1.68,3.6,4.56,11.28,3.6,9.84.24,9.36c-.72,2.48-1.44,4.96-2.16,7.44-.36.48-.54,1.08-.48,1.68.04.44.21.85.48,1.2l2.88,4.8c3.12,1.76,6.24,3.52,9.36,5.28,4,1.76,8,3.52,12,5.28l13.44,2.64s12.5-.01,13.68-.48c1.18-.47,9.12-2.64,9.12-2.64.4-13.28.8-26.56,1.2-39.84.08-3.52.16-7.04.24-10.56l.72-14.64,3.6-21.6,7.2-19.68,8.88-12.96,6-2.64c1.6.48,3.2.96,4.8,1.44,1.04,1.44,2.08,2.88,3.12,4.32l-1.92,6.72-9.36,20.4-9.12,23.28-7.44,28.32s-.56,2.53-1.3,5.86c-.63,2.82-1.38,6.21-2.03,9.13-.82,3.7-1.47,6.62-1.47,6.62,0,0-.09,8.98-.16,15.79-.04,4.15-.08,7.49-.08,7.49l34.56,25.2-2.64-3.84-5.04-7.68-.96-12.48.96-14.64,1.92-13.44,2.4-14.4,2.16-9.12,1.68-6c1.36-1.68,2.72-3.36,4.08-5.04,1.44.08,2.88.16,4.32.24,1.12,1.12,2.24,2.24,3.36,3.36l1.68,10.08-1.92,14.88-1.68,17.76-.48,17.28-.96,15.12.24,11.04,2.64,9.12,6.96-1.2,15.84-2.88,18.48-4.56-3.6-19.44Z"/>
      <path class="cls-1" d="M282,289.68c0-.12-.04-.08-.09.08.06.03.09.01.09-.08ZM312,661.92l-4.8-32.64-9.36-40.56-4.32-20.4-3.6-26.16-4.8-23.04-6-27.84-2.88-22.32-2.64-21.84-2.16-27.6-.72-28.08,2.16-17.76.96-19.68-2.64-.24-8.64-.48c-3.68.32-7.36.64-11.04.96-5.52.08-11.04.16-16.56.24l-13.2,3.12-15.12,2.4-11.76,3.36-11.28,3.84-12.72,5.76-29.04,12.48,9.12-5.76,12.72-6.24,12.96-6.48,17.52-6.72,15.6-4.8,17.52-3.36,18.48-1.92,13.92-.24,14.4,1.68,1.2-18.96,1.2-12.48,2.4-16.08-3.6-1.68-11.28-3.84-12.24-3.6-8.64-1.68-10.8-1.2-12-1.2-13.2-1.68-10.56-1.2,6.96-.48,12.96.24,14.64,1.2,17.04,2.88,18,4.8,13.44,5.04s1.88-10.55,2.31-11.92c-.7-.37-5.43-8.72-5.43-8.72l-3.36-7.92-7.68-19.92-4.56-9.6-4.32-8.64-6.48-6.96-5.52-4.08-8.88-5.28-9.6-3.6-.96-1.92,11.04,2.88,10.32,6.72,10.56,8.64,6.24,9.36,3.36,6.72,4.32,12,6.24,14.88,5.52,12.72.96-2.64c.08-2.24.16-4.48.24-6.72.17-1.65.87-2.75,1.76-2.98.3-.08.89.02,1.6.34.59.26,1.15.58,1.68.96l.48-3.36-1.92-12c-.24-3.04-.48-6.08-.72-9.12.08.05-1.13-19.4-1.2-19.44-.72-3.84-1.44-7.68-2.16-11.52-.56-2.64-1.12-5.28-1.68-7.92l-1.68-3.12-4.56-6.96c.33.07-8.94-10.09-10.08-10.32l-5.52-3.36c-5.44-1.68-10.88-3.36-16.32-5.04-5.12-.4-10.24-.8-15.36-1.2l-10.8.48-9.36.96-17.28,4.8c-4.72,1.68-9.44,3.36-14.16,5.04-4.64,1.68-9.28,3.36-13.92,5.04l-12,6c-3.2,1.6-6.4,3.2-9.6,4.8l-3.84,3.84c-1.2,1.84-2.4,3.68-3.6,5.52-.08,2.56-.16,5.12-.24,7.68.32,2.64.64,5.28.96,7.92l3.84,5.28,5.28-7.2,7.68-5.28,10.8-4.8,12.72-2.4,13.68,1.44,10.56,2.16,9.84,5.76,8.16,8.64,5.52,11.04,3.36,11.04,1.44,10.08-.96,5.76-3.84,3.12-5.28-.24-12.96-3.12-12.96-2.88-14.16-4.8-12.24-5.52-12.24-5.76c-3.68-1.68-7.36-3.36-11.04-5.04-1.52.24-3.04.48-4.56.72l-6,3.36-8.88,8.88-15.6,11.28c-4.8,2.8-9.6,5.6-14.4,8.4-4.4,3.04-8.8,6.08-13.2,9.12-1.48,2.04-2.62,4.31-3.36,6.72-.81,2.64-1.14,5.4-.96,8.16l11.76,45.6c3.92-3.28,7.84-6.56,11.76-9.84,12.64-6.56,25.28-13.12,37.92-19.68l29.76-5.04,20.16.48,15.84,2.4,5.52,3.84,3.84,5.76-.96,5.28-3.84,1.44-24.24,2.88c-8.24,1.12-16.48,2.24-24.72,3.36-8.16,1.36-16.32,2.72-24.48,4.08-6.65,2.65-13.31,5.29-19.96,7.94-.39.15-.77.31-1.16.46-4.64,2.48-9.28,4.96-13.92,7.44-3.84,2.64-7.68,5.28-11.52,7.92-2.16,2.72-4.32,5.44-6.48,8.16-1.1,2.32-1.98,4.72-2.64,7.2-.92,3.45-1.4,6.98-1.44,10.56-.48,3.18-.56,6.4-.24,9.6.34,3.46,1.15,6.84,2.4,10.08,2.8,6.4,5.6,12.8,8.4,19.2,3.76,6.72,7.52,13.44,11.28,20.16,3.68,4.32,7.36,8.64,11.04,12.96,3.68,3.44,7.36,6.88,11.04,10.32l1.2-7.92,2.64-13.2,4.56-12.48,6.24-10.08,9.6-12,10.56-10.56,11.76-9.12c2.72-1.12,5.44-2.24,8.16-3.36,2.48-.16,4.96-.32,7.44-.48,2.71-.39,5.44-.47,8.16-.24,3.03.26,6.01.9,8.88,1.92,2.64,1.12,5.28,2.24,7.92,3.36,1.44.88,2.88,1.76,4.32,2.64.8,1.44,1.6,2.88,2.4,4.32-.08,1.12-.16,2.24-.24,3.36l-9.36,8.4-17.76,11.76-20.88,14.64-28.56,18.96s-10.4,8.17-14.84,11.66c-1.2.94-1.96,1.54-1.96,1.54l-7.44,11.28-11.28,24.72-8.16,25.92,5.28.24,14.88,4.08,17.52,10.32c5.68,3.68,11.36,7.36,17.04,11.04,2.96,4.64,5.92,9.28,8.88,13.92l1.68,3.6,4.56,11.28,3.6,9.84.24,9.36c-.72,2.48-1.44,4.96-2.16,7.44-.36.48-.54,1.08-.48,1.68.04.44.21.85.48,1.2l2.88,4.8c3.12,1.76,6.24,3.52,9.36,5.28,4,1.76,8,3.52,12,5.28l13.44,2.64s12.5-.01,13.68-.48c1.18-.47,9.12-2.64,9.12-2.64.4-13.28.8-26.56,1.2-39.84.08-3.52.16-7.04.24-10.56l.72-14.64,3.6-21.6,7.2-19.68,8.88-12.96,6-2.64c1.6.48,3.2.96,4.8,1.44,1.04,1.44,2.08,2.88,3.12,4.32l-1.92,6.72-9.36,20.4-9.12,23.28-7.44,28.32s-.56,2.53-1.3,5.86c-.63,2.82-1.38,6.21-2.03,9.13-.82,3.7-1.47,6.62-1.47,6.62,0,0-.09,8.98-.16,15.79-.04,4.15-.08,7.49-.08,7.49l34.56,25.2-2.64-3.84-5.04-7.68-.96-12.48.96-14.64,1.92-13.44,2.4-14.4,2.16-9.12,1.68-6c1.36-1.68,2.72-3.36,4.08-5.04,1.44.08,2.88.16,4.32.24,1.12,1.12,2.24,2.24,3.36,3.36l1.68,10.08-1.92,14.88-1.68,17.76-.48,17.28-.96,15.12.24,11.04,2.64,9.12,6.96-1.2,15.84-2.88,18.48-4.56-3.6-19.44Z"/>
    </g>
  </g>
  <g id="Form_2" data-name="Form 2" class="cls-3">
    <g id="Form_2-2" data-name="Form 2">
      <path class="cls-2" d="M334.32,340.56l18.24,4.56,22.08,6.24,25.2,7.68,23.04,7.92,15.6,6.72,2.88,1.68,4.56-14.64v-15.6l-4.8-17.52-7.68-15.36-14.64-13.44-11.76-10.56-10.08-6.24-11.28-3.36-14.4,1.92s-5.36.59-10.85,1.24c-3.62.43-7.76,1.05-11.71,1.64-5.52.82-10.98,1.7-16.56,2.64-3.08.66-6.22.9-9.36.72-3.02-.17-6-.74-8.88-1.68-2.07-.73-4.04-2.14-4.32-4.08-.05-.32-.05-.64,0-.96-.4-4.8-.8-9.6-1.2-14.4,3.73-.47,7.49-.71,11.28-.72,3.64,0,6.89.24,10.56.48,2.85.72,5.65,1.6,8.4,2.64,3.39,1.28,6.67,2.81,9.84,4.56,2.96,1.04,5.92,2.08,8.88,3.12,3.2.88,6.4,1.76,9.6,2.64l6-.72,4.32.48-8.64-7.92-4.8-11.52c-3.28-4.72-6.56-9.44-9.84-14.16-3.68-4.24-7.36-8.48-11.04-12.72l-11.28-13.44c-2.16-3.92-4.32-7.84-6.48-11.76-.8-2.16-1.6-4.32-2.4-6.48-.64-2.4-1.28-4.8-1.92-7.2l-4.32,16.32-2.64,11.28-6-.24c-2.07.45-4.01,1.25-5.76,2.4-.76.5-1.48,1.06-2.16,1.68-.76.51-1.48,1.07-2.16,1.68-1.19,1.07-2.23,2.27-3.12,3.6-1.03,1.15-1.93,2.4-2.7,3.74-.59,1.04-1.12,2.14-1.51,3.21-1.22,3.35-1.34,7.08-.59,10.8.8,3.52,1.6,7.04,2.4,10.56.72,3.44,1.44,6.88,2.16,10.32-.16,2.64-.32,5.28-.48,7.92-.64,1.6-1.28,3.2-1.92,4.8l-4.8,27.12,23.04-.96c6.64.16,13.28.32,19.92.48,5.84.64,11.68,1.28,17.52,1.92l17.76,2.88,7.2,1.68-4.32,2.4c-6.88-1.04-13.76-2.08-20.64-3.12-6.32-.56-12.64-1.12-18.96-1.68l-22.32-.24-19.92,2.16c-1.04,6.96-2.08,13.92-3.12,20.88-.72,6.08-1.44,12.16-2.16,18.24l21.84,5.76c7.84,2.32,15.68,4.64,23.52,6.96,5.68,2.56,11.36,5.12,17.04,7.68l17.52,11.52,11.76,7.2-4.8,2.88c-9.12-6-18.24-12-27.36-18l-24.96-10.08c-10.56-2.56-21.12-5.12-31.68-7.68l-.48,51.6v50.88s4.98,51.25,5.04,52.8,5.04,42.48,5.04,42.48l6.24,36.72,8.88,35.04,3.12,23.52,2.4,16.8,3.36,12.24,12.72-1.92,6.48-2.64,4.08-4.08,1.2-16.8v-29.52l-1.68-12.96-3.12-13.2-3.36-10.8-4.32-10.32-5.04-9.6-5.76-8.16-5.52-6.72-4.56-6.72c-.86-1.58-1.65-3.16-2.4-4.8-.69-1.51-1.32-3.01-1.92-4.56-.24-1.84-.48-3.68-.72-5.52-.07-.99.09-1.97.48-2.88.46-1.07,1.21-1.98,2.16-2.64.6-.33,1.25-.58,1.92-.72,1.27-.27,2.59-.18,3.84.24,2.4,1.12,4.8,2.24,7.2,3.36,1.98,1.51,3.96,3.01,5.94,4.52,1.7,1.29,3.4,2.59,5.1,3.88,5.04,5.6,10.08,11.2,15.12,16.8l11.76,16.08,11.28,21.84,4.08,6-5.28-15.36-4.8-15.84c-.53-2.38-1.25-4.7-2.16-6.96-1.05-2.6-2.33-5.08-3.84-7.44-2.16-3.04-4.32-6.08-6.48-9.12-3.2-3.52-6.4-7.04-9.6-10.56l-9.84-11.76c-2.32-3.44-4.64-6.88-6.96-10.32-3.68-4.88-7.36-9.76-11.04-14.64-2.56-3.92-5.12-7.84-7.68-11.76-1.84-4.24-3.68-8.48-5.52-12.72l-4.32-13.2-.24-6.72,2.64-5.52,5.28-1.2,4.56,1.2,5.52,5.04c3.84,5.44,7.68,10.88,11.52,16.32,2.96,4.96,5.92,9.92,8.88,14.88,3.84,7.76,7.68,15.52,11.52,23.28,2.56,7.36,5.12,14.72,7.68,22.08l2.4,5.52,4.8,6.96,8.4,10.32,8.16,11.04c1.68,4.24,3.36,8.48,5.04,12.72.56,1.92,1.12,3.84,1.68,5.76.64,2.24,1.28,4.48,1.92,6.72.4,3.2.8,6.4,1.2,9.6l3.36,12.72,3.6,11.04,3.12,9.12c1.6-5.04,3.2-10.08,4.8-15.12,2.08-4.4,4.16-8.8,6.24-13.2,2.16-4.24,4.32-8.48,6.48-12.72l9.36-17.28,8.16-14.16c1.12-2.96,2.24-5.92,3.36-8.88.96-3.36,1.92-6.72,2.88-10.08.64-4.88,1.28-9.76,1.92-14.64-.32-2.48-.64-4.96-.96-7.44l-3.6-8.16-8.16-9.6-11.76-10.08-14.64-12.48-15.36-13.2-16.56-14.64-12.72-10.8-19.44-13.92-11.52-11.52-4.08-5.28-.96-5.04,1.92-.96,2.4.96,3.36,3.84,6,4.8,7.92,5.04,10.56,3.12,20.4,7.44,16.08,11.28,16.08,14.16,12.24,15.84,8.4,17.52,4.08,7.2,6.72,7.2-4.08-25.92,4.08-15.12,5.28-15.12,2.64-12.96-2.88-16.56-8.4-11.76c-1.83-1.88-3.79-3.62-5.87-5.21-1.5-1.15-3.07-2.21-4.69-3.19l-23.28-12.72s-18.44-9.13-19.68-9.36c-1.24-.23-22.08-12.48-22.08-12.48l-17.04-8.88-12-4.32-9.12-2.64-5.28-.48c.29-1.75.13-3.53-.48-5.19-.48-1.29-1.21-2.46-2.16-3.45,3.04,1.04,6.08,2.08,9.12,3.12,4.8,1.04,9.6,2.08,14.4,3.12Z"/>
      <path class="cls-1" d="M334.32,340.56l18.24,4.56,22.08,6.24,25.2,7.68,23.04,7.92,15.6,6.72,2.88,1.68,4.56-14.64v-15.6l-4.8-17.52-7.68-15.36-14.64-13.44-11.76-10.56-10.08-6.24-11.28-3.36-14.4,1.92s-5.36.59-10.85,1.24c-3.62.43-7.76,1.05-11.71,1.64-5.52.82-10.98,1.7-16.56,2.64-3.08.66-6.22.9-9.36.72-3.02-.17-6-.74-8.88-1.68-2.07-.73-4.04-2.14-4.32-4.08-.05-.32-.05-.64,0-.96-.4-4.8-.8-9.6-1.2-14.4,3.73-.47,7.49-.71,11.28-.72,3.64,0,6.89.24,10.56.48,2.85.72,5.65,1.6,8.4,2.64,3.39,1.28,6.67,2.81,9.84,4.56,2.96,1.04,5.92,2.08,8.88,3.12,3.2.88,6.4,1.76,9.6,2.64l6-.72,4.32.48-8.64-7.92-4.8-11.52c-3.28-4.72-6.56-9.44-9.84-14.16-3.68-4.24-7.36-8.48-11.04-12.72l-11.28-13.44c-2.16-3.92-4.32-7.84-6.48-11.76-.8-2.16-1.6-4.32-2.4-6.48-.64-2.4-1.28-4.8-1.92-7.2l-4.32,16.32-2.64,11.28-6-.24c-2.07.45-4.01,1.25-5.76,2.4-.76.5-1.48,1.06-2.16,1.68-.76.51-1.48,1.07-2.16,1.68-1.19,1.07-2.23,2.27-3.12,3.6-1.03,1.15-1.93,2.4-2.7,3.74-.59,1.04-1.12,2.14-1.51,3.21-1.22,3.35-1.34,7.08-.59,10.8.8,3.52,1.6,7.04,2.4,10.56.72,3.44,1.44,6.88,2.16,10.32-.16,2.64-.32,5.28-.48,7.92-.64,1.6-1.28,3.2-1.92,4.8l-4.8,27.12,23.04-.96c6.64.16,13.28.32,19.92.48,5.84.64,11.68,1.28,17.52,1.92l17.76,2.88,7.2,1.68-4.32,2.4c-6.88-1.04-13.76-2.08-20.64-3.12-6.32-.56-12.64-1.12-18.96-1.68l-22.32-.24-19.92,2.16c-1.04,6.96-2.08,13.92-3.12,20.88-.72,6.08-1.44,12.16-2.16,18.24l21.84,5.76c7.84,2.32,15.68,4.64,23.52,6.96,5.68,2.56,11.36,5.12,17.04,7.68l17.52,11.52,11.76,7.2-4.8,2.88c-9.12-6-18.24-12-27.36-18l-24.96-10.08c-10.56-2.56-21.12-5.12-31.68-7.68l-.48,51.6v50.88s4.98,51.25,5.04,52.8,5.04,42.48,5.04,42.48l6.24,36.72,8.88,35.04,3.12,23.52,2.4,16.8,3.36,12.24,12.72-1.92,6.48-2.64,4.08-4.08,1.2-16.8v-29.52l-1.68-12.96-3.12-13.2-3.36-10.8-4.32-10.32-5.04-9.6-5.76-8.16-5.52-6.72-4.56-6.72c-.86-1.58-1.65-3.16-2.4-4.8-.69-1.51-1.32-3.01-1.92-4.56-.24-1.84-.48-3.68-.72-5.52-.07-.99.09-1.97.48-2.88.46-1.07,1.21-1.98,2.16-2.64.6-.33,1.25-.58,1.92-.72,1.27-.27,2.59-.18,3.84.24,2.4,1.12,4.8,2.24,7.2,3.36,1.98,1.51,3.96,3.01,5.94,4.52,1.7,1.29,3.4,2.59,5.1,3.88,5.04,5.6,10.08,11.2,15.12,16.8l11.76,16.08,11.28,21.84,4.08,6-5.28-15.36-4.8-15.84c-.53-2.38-1.25-4.7-2.16-6.96-1.05-2.6-2.33-5.08-3.84-7.44-2.16-3.04-4.32-6.08-6.48-9.12-3.2-3.52-6.4-7.04-9.6-10.56l-9.84-11.76c-2.32-3.44-4.64-6.88-6.96-10.32-3.68-4.88-7.36-9.76-11.04-14.64-2.56-3.92-5.12-7.84-7.68-11.76-1.84-4.24-3.68-8.48-5.52-12.72l-4.32-13.2-.24-6.72,2.64-5.52,5.28-1.2,4.56,1.2,5.52,5.04c3.84,5.44,7.68,10.88,11.52,16.32,2.96,4.96,5.92,9.92,8.88,14.88,3.84,7.76,7.68,15.52,11.52,23.28,2.56,7.36,5.12,14.72,7.68,22.08l2.4,5.52,4.8,6.96,8.4,10.32,8.16,11.04c1.68,4.24,3.36,8.48,5.04,12.72.56,1.92,1.12,3.84,1.68,5.76.64,2.24,1.28,4.48,1.92,6.72.4,3.2.8,6.4,1.2,9.6l3.36,12.72,3.6,11.04,3.12,9.12c1.6-5.04,3.2-10.08,4.8-15.12,2.08-4.4,4.16-8.8,6.24-13.2,2.16-4.24,4.32-8.48,6.48-12.72l9.36-17.28,8.16-14.16c1.12-2.96,2.24-5.92,3.36-8.88.96-3.36,1.92-6.72,2.88-10.08.64-4.88,1.28-9.76,1.92-14.64-.32-2.48-.64-4.96-.96-7.44l-3.6-8.16-8.16-9.6-11.76-10.08-14.64-12.48-15.36-13.2-16.56-14.64-12.72-10.8-19.44-13.92-11.52-11.52-4.08-5.28-.96-5.04,1.92-.96,2.4.96,3.36,3.84,6,4.8,7.92,5.04,10.56,3.12,20.4,7.44,16.08,11.28,16.08,14.16,12.24,15.84,8.4,17.52,4.08,7.2,6.72,7.2-4.08-25.92,4.08-15.12,5.28-15.12,2.64-12.96-2.88-16.56-8.4-11.76c-1.83-1.88-3.79-3.62-5.87-5.21-1.5-1.15-3.07-2.21-4.69-3.19l-23.28-12.72s-18.44-9.13-19.68-9.36c-1.24-.23-22.08-12.48-22.08-12.48l-17.04-8.88-12-4.32-9.12-2.64-5.28-.48c.29-1.75.13-3.53-.48-5.19-.48-1.29-1.21-2.46-2.16-3.45,3.04,1.04,6.08,2.08,9.12,3.12,4.8,1.04,9.6,2.08,14.4,3.12Z"/>
    </g>
  </g>
  <g id="Form_3" data-name="Form 3" class="cls-3">
    <g id="Form_3-2" data-name="Form 3">
      <path class="cls-2" d="M576.48,246.24c-13.36-.72-26.72-1.44-40.08-2.16-8.7-.28-17.22-.28-25.92,0-8.71.28-17.24.83-25.92,1.68-18.96,2.8-37.92,5.6-56.88,8.4-18.4,3.6-36.8,7.2-55.2,10.8l-63.12,15.36,1.92,4.08,6.96,1.2,11.04.24,16.32-2.16,21.36-1.92,25.2-.72,21.12-4.8c10.96-2.56,21.92-5.12,32.88-7.68,12.16-2.32,24.32-4.64,36.48-6.96,10.46-.92,20.7-1.67,31.18-2.28.73-.04,1.45-.08,2.18-.12,4.88-.23,9.77-.15,14.64.24,4.6.37,9.16,1.01,13.68,1.92,7.92,1.6,15.84,3.2,23.76,4.8l17.28,6.72,7.44-24.48c-5.44-.72-10.88-1.44-16.32-2.16Z"/>
      <path class="cls-1" d="M576.48,246.24c-13.36-.72-26.72-1.44-40.08-2.16-8.7-.28-17.22-.28-25.92,0-8.71.28-17.24.83-25.92,1.68-18.96,2.8-37.92,5.6-56.88,8.4-18.4,3.6-36.8,7.2-55.2,10.8l-63.12,15.36,1.92,4.08,6.96,1.2,11.04.24,16.32-2.16,21.36-1.92,25.2-.72,21.12-4.8c10.96-2.56,21.92-5.12,32.88-7.68,12.16-2.32,24.32-4.64,36.48-6.96,10.46-.92,20.7-1.67,31.18-2.28.73-.04,1.45-.08,2.18-.12,4.88-.23,9.77-.15,14.64.24,4.6.37,9.16,1.01,13.68,1.92,7.92,1.6,15.84,3.2,23.76,4.8l17.28,6.72,7.44-24.48c-5.44-.72-10.88-1.44-16.32-2.16Z"/>
    </g>
  </g>
  <g id="Form_5" data-name="Form 5" class="cls-3">
    <g id="Form_5-2" data-name="Form 5">
      <path class="cls-1" d="M243.84,300.96c-2.97-.91-7.07-1.21-7.68-1.2-3.76.05-7.79-.08-11.04-.48-3.62-.44-9.8-1.19-9.84-1.2-.31-.09-1.75-.46-3.12,0-1.87.63-3.58,2.59-3.6,4.8,0,.87.6,2.77,2.64,4.56,2.7,2.36,5.65,2.89,7.92,3.36,3.15.65,5.46,1.66,8.64,2.16,3.85.6,6.69.09,10.56.48,2.89.29,5.54.74,8.88-.48,1.67-.61,6-2.62,6.02-5.38.01-3.3-6.38-5.7-9.38-6.62Z"/>
    </g>
  </g>
  <g id="Form_6" data-name="Form 6" class="cls-3">
    <g id="Form_6-2" data-name="Form 6">
      <path class="cls-1" d="M308.68,345.69c-.06-.18-.27-.91-.28-1.53,0-.08,0-.16,0-.24.01-.57-.37-3.44-1.44-5.76-.7-1.52-2.17-3.69-4.08-5.76-1.26-1.37-2.55-2.47-3.6-3.12-.57-.35-1.11-.62-1.68-.96-.75-.45-1.76-1.04-1.92-1.2-.4-.4-.82-.96-1.44-.96-.28,0-.55.13-.72.24-1.26.83-.97,4.08-.96,6.72.01,2.99-.54,4.87.24,7.68.66,2.38,1.79,4.01,2.64,4.8,1.77,1.64,3.72,1.92,7.2,2.4,3.69.51,5.8.81,6.48-.24.14-.21-.09-1.07-.44-2.07Z"/>
    </g>
  </g>
  <g id="Form_7" data-name="Form 7" class="cls-3">
    <g id="Form_7-2" data-name="Form 7">
      <path class="cls-1" d="M246.72,360.96c-.74-.98-2.44-2.41-5.28-3.12-1.52-.38-3.86-.51-6.72.24-1.67.44-4.06,1.54-6.48,3.12-2.87,1.87-4.79,3.91-7.44,6.24-.33.29-1.97,1.98-2.88,3.6-.83,1.47-1.4,3.17-1.09,4.76.04.19.07.36.13.52.3.79,1.38,1.85,3.12,2.88,2.06,1.22,4.4,2.04,5.28,2.16,1.62.21,3.48.04,5.52-.72,1.9-.71,4.24-2.55,4.8-2.88.67-.4,2.05-1.1,3.12-1.68.62-.34,1.43-.8,2.16-1.2,2.05-1.13,3.43-1.9,4.8-3.36,1.44-1.54,2.21-3.24,2.4-4.08.53-2.36-.14-4.76-1.44-6.48Z"/>
    </g>
  </g>
  <g id="Form_8" data-name="Form 8" class="cls-3">
    <g id="Form_8-2" data-name="Form 8">
      <path class="cls-1" d="M323.21,426.09c-1.71-2.23-1.39-4.94-4.01-7.05-.92-.74-2.12-1.35-3.6-1.68-1.86-.41-3.36-.05-3.84.24-.85.51-1.53,1.43-1.92,2.88-.24.88-.15,2.08-.18,2.43-.1,1.27-.78,2.26-.54,3.57.28,1.54,1.32,2.23,2.4,3.6.5.64,1.29,2.15,1.92,3.6.72,1.65,1.52,2.87,2.16,4.56.17.45.66,1.79,1.92,2.4,1.4.68,2.93.11,3.6-.24,1.3-.67,1.81-1.82,2.88-3.6.56-.93,1.43-2.36,1.92-3.12.72-1.11,1.2-1.77,1.2-2.64,0-1.96-3.39-4.27-3.91-4.95Z"/>
    </g>
  </g>
  <g id="Form_9" data-name="Form 9" class="cls-3">
    <g id="Form_9-2" data-name="Form 9">
      <path class="cls-1" d="M288,534.24c-1.5-.84-6.91,5.97-13.92,15.36-3.96,5.31-6.85,10.23-11.04,15.36-2.34,2.87-4.03,5.66-6.24,8.64-.72.97-2.39,3.49-3.36,6-.64,1.65-1.16,3.71-1.56,5.99-.13.72-.24,1.58-.36,2.41-.06.48-.14.95-.21,1.42.48-1.7,1.17-3.67,2.18-5.72.97-1.96,2-3.52,3.31-5.3,2.07-2.82,4.15-5.12,6.24-7.92,2.39-3.21,3.68-6.05,6.24-9.12,2.01-2.41,3.99-4.08,6-6.48,1.26-1.51,3.16-4.18,4.8-6.48,1.63-2.29,3.16-4.96,4.32-6,1.14-1.01,2.83-2.23,3.6-4.56.42-1.26.69-3.21,0-3.6ZM250.32,594.72s.56-2.49.99-5.3c-.87,3.1-1.02,5.29-.99,5.3Z"/>
    </g>
  </g>
  <g id="Form_10" data-name="Form 10" class="cls-3">
    <g id="Form_10-2" data-name="Form 10">
      <path class="cls-1" d="M250.8,303.36c-1.68-1.21-3.69-1.93-4.56-2.16-2.52-.66-4.95-.93-6.72-.96-2.89-.05-5.03.45-7.92.24-2.2-.16-4-.77-6.24-1.2-3.27-.63-7.61-.89-8.4-1.2-.06-.02-.31-.13-.57-.04-.21.06-.33.22-.39.28-.67.74-2.79-.05-4.08.48-1.72.71-2.27,3.11-2.4,3.84-.25,1.42.03,2.88.72,4.08,1.04,1.8,2.75,2.58,4.32,3.12,2.3.79,5.68,1.38,6.24,1.44,3.53.41,5.37,1.83,8.88,2.4,2.31.37,7.11.34,11.52,0,.9-.07,5.31-.77,8.64-2.4,2.81-1.37,4.01-2.69,4.08-3.84.06-.9-.83-2.44-3.12-4.08Z"/>
    </g>
  </g>
  <g id="Form_11" data-name="Form 11" class="cls-3">
    <g id="Form_11-2" data-name="Form 11">
      <path class="cls-1" d="M234.48,456.72c-1.4-.78-4.56-1.62-8.64-.96-2.68.43-5.77,1.61-9.12,4.32-2.07,1.67-3.25,3.21-4.8,5.28-1.53,2.04-3.05,3.94-4.56,6-1.12,1.54-2.24,3.02-3.36,4.56-3.03,4.19-6.36,8.96-8.4,12.24-2.88,4.64-5.63,9.74-8.16,15.12-1.31,2.79-2.38,5.39-3.24,8.05-.45,1.4-.9,3.05-1.32,4.67-.55,2.11-1.18,4.49-1.68,6.24-.8,2.83-3.54,12.19-2.4,18.96.25,1.49.62,2.55,1.2,2.64.89.14,1.83-2.12,2.88-4.08,1.34-2.5,3.62-4.7,5.76-7.44,2.45-3.13,4.41-6.07,6.96-9.12,3.2-3.81,6.37-6.75,9.84-10.32,3.13-3.22,6.91-7.75,10.56-11.76,3.13-3.43,6.25-6.81,9.36-10.08,1.81-1.91,4.3-4.6,5.28-5.52,2.16-2.04,3.77-3.36,5.52-5.76,3.35-4.59,4.35-9.31,4.32-11.28-.04-2.39-.72-8.81-6-11.76Z"/>
    </g>
  </g>
  <g id="Form_12" data-name="Form 12" class="cls-3">
    <g id="Form_12-2" data-name="Form 12">
      <path class="cls-1" d="M251.76,423.84c-1.37-2.18-3.79-2.76-5.04-2.88-2.74-.26-5.28,1.73-6.96,2.16-3.07.79-4.6-.28-7.68.48-3.72.92-5.89,2.56-7.2,4.32-.58.78-1.49,3.31-2.16,5.76-.19.71-.42,1.67-.24,2.88.28,1.85,1.49,3.44,2.88,4.56,1.78,1.43,3.66,1.62,6.72,2.16,3.26.58,5.32,1.16,7.68.48,1.69-.49,3.29-1.41,4.56-2.64,1.74-1.69,2.45-4.21,3.12-5.28,1.16-1.86,4.42-3.98,5.04-7.2.33-1.69.15-3.42-.72-4.8Z"/>
    </g>
  </g>
</svg>