<?xml version="1.0" encoding="UTF-8"?>
<svg xmlns="http://www.w3.org/2000/svg" viewBox="0 0 1457.64 2507.54">
  <defs>
    <style>
      .cls-1 {
        fill: none;
        stroke: #2e3a73;
        stroke-miterlimit: 100;
        stroke-width: 6.35px;
      }

      .cls-2 {
        isolation: isolate;
      }
    </style>
  </defs>
  <g id="Form_1" data-name="Form 1" class="cls-2">
    <g id="Form_1-2" data-name="Form 1">
      <path class="cls-1" d="M995.2,229.18c-.14.18,8.97,9.96,24.42,24.08-10.97-15.8-24.27-24.27-24.42-24.08ZM1454.2,1170.18c-.61-17.64-3.21-39.08-7-61-3.41-19.72-8.32-39.71-13-51-15.17-36.6-38.84-59.86-40-59-.79.58,9.99,13.28,16,33,3.4,11.15,5.24,23.78,5,38-.23,13.44-2.36,25.79-6,37-2.86,8.8-9.48,22.18-18,35-8.01,12.05-16.45,22.06-24,29-7.3,6.71-17.77,14.15-30,21-10.82,6.06-22.95,11.35-37,16-11.24,3.72-23.42,6.69-37,9-14.23,2.42-29.55,2.78-41,4-15.08,1.61-38.78,2.23-62,0-7.93-.76-19.38-2.59-24-11-2.6-4.72-2.88-11.44,1-21,5.55-13.68,18.12-22.14,21-24,14.45-9.36,23.82-24.28,40-38,20.75-17.6,48.64-40.9,61-52,29.42-26.43,57.25-55.93,83-88,17.1-21.3,27.64-40.91,45-62,14.74-17.91,26.47-30.61,35-54,8.62-23.62,12.6-55.63,2-100-3.1-12.99-9.3-28.81-16-45-6.9-16.7-14.11-32.3-21-49-7.58-18.38-12.94-32.66-23-49-5.9-9.6-17.17-24.04-28-37-10.04-12-19.38-21.22-28-34-15.62-23.17-23.5-46.2-24-46-.35.14,4.53,11.76,7,25,1.71,9.17,1.97,16.74,2,25,.04,13.76.44,30.7,0,40-1.59,33.91-5.91,62.8-13,88-4.85,17.26-15.51,42.9-27,67-12.57,26.37-25.86,50.47-39,70-12.14,18.05-29.58,37.74-46,58-16.5,20.35-31.38,39.34-48,56-13.8,13.83-26.66,21.72-40,36-3.74,4.01-25.41,21.93-40,34-4.39,3.63-17.04,14.02-32,12-4.34-.59-12.58-2.67-16-9-3.88-7.19.06-16.05,3-22,6.26-12.66,14.74-28.14,18-32,10.44-12.37,17.29-23.86,28-36,12.67-14.36,25.15-26.41,37-41,14.53-17.9,24.26-33.92,35-53,10.57-18.78,21.41-38.31,31-56,7.12-13.14,21.3-39.89,32-60,9.63-18.1,18.27-36.13,26-58,5.97-16.89,10.94-35.13,15-55,4.67-22.86,7.28-46.02,7-61-.23-12.08-2.42-25.23-4-39-1.84-16.06-2.78-30.7-6-45-4.78-21.23-11.85-38.94-19-51-9.83-16.58-22.51-29.49-31-37-24.11-21.34-52.82-44.5-69-55-30.78-19.97-57.51-42.41-75.58-58.92.88,1.26,1.74,2.56,2.58,3.92,14.92,24.12,14.53,48.98,14,63-1.12,29.31-4.04,65.12-7,79-7.62,35.77-14.53,76.57-22,103-8.67,30.67-20.83,63.13-34,97-18.01,46.31-41.05,93.95-53,131-3.95,12.24-24.01,51.59-39,81-3.1,6.08-18.67,34.29-46,49-11.72,6.31-24.56,9.76-38,8-13.22-1.73-19.57-5.81-22-11-4.41-9.4,4.16-21.75,7-26,13.51-20.18,14.4-35.88,28-56,6-8.88,34.41-63.45,53-99,21.94-41.97,44.2-87.36,58-121,14.56-35.48,22.74-67.4,37-103,7.46-18.63,19.78-58.57,28-93,4.21-17.64,8.96-43.48,4-74-4.76-29.28-18.31-60.65-44-91-10.92-12.9-38.09-35.5-69-53-20.35-11.52-35.91-17.18-54-18-29.64-1.35-52.32,10.98-52,12,.25.79,14.85-6.13,32-2,13.46,3.24,27.25,12.73,40,32,13.51,20.41,18.84,44.84,17,81-1.57,30.93-10.41,67.23-14,78-9.69,29.09-20.13,56.44-31,81-16.09,36.35-40.32,68.21-45.64,90.15-.62,2.55-3.4,14.63-13.36,21.85-2.87,2.08-11.14,7.18-17,4-5.42-2.94-6.21-11.82-6-20,.78-29.84,8.96-70.2,13-89,7.14-33.21-.56-57.68-8-98-15.14-82.04-14.62-169.18-18-169-2.38.12-6.5,38.39-2,82,2.92,28.31,8.25,59.01,2,96-3.09,18.3-9.99,46.25-17,46-6.05-.22-10.13-21.36-12-34-4.13-27.87.26-50.92,2-74,1.75-23.16-.74-50.83-10-84-6.89-24.68-15.94-42.98-29-59-12.75-15.64-26.02-26.1-39-33-25.76-13.69-48.08-13.13-73-14-23.94-.83-40.06-6.79-64-6-15.65.52-42.1,2.85-59-14-2.56-2.56-7.33-10.25-11-18-1.79-3.78-9.74-29.87-14-30-5.47-.17-10.16,19.55-11,23-10.73,44.13-47.13,80.97-91,135-34.9,42.98-50.95,81.39-89,118-17.41,16.75-47.79,45.15-67,85-8.5,17.62-10.23,31.05-20,48-13.86,24.04-27.27,35.81-29,59-1.84,24.64,10.67,43.68,18,55,14.07,21.74,21.98,40.66,38,61,34.46,43.76,69.42,82.64,101.8,113.24,33.2,31.37,71.35,62.4,90.2,71.76,21.98,10.91,42.66,24.88,60,32,2.75,1.13,23.37,11.22,35,28,9.13,13.17,11.49,22.66,8,29-4.83,8.77-18.5,9.16-23,9-12.46-.45-21.75-7.54-25-10-10.81-8.17-20.12-10.93-31-19-24.94-18.5-49.52-34.61-72-54-27.46-23.68-55.23-48.14-83-73-20.47-18.32-43.63-41.95-66-67-7.38-8.26-22.84-30.86-35-49-7.09-10.57-15.18-23.26-18-42-3.8-25.22,7.8-49.03,4-51-4.97-2.58-30.49,29.47-51,73-10.03,21.3-17.06,48.5-26,76-1.67,5.14-8.6,33.53-9,56-.24,13.62,1.33,26.75,8,40,5.43,10.78,15.35,20.64,18,23,26.33,23.45,75.01,88.02,128,131,49.5,40.15,105.09,74.42,134.56,85.87,29.17,11.33,125.26,64.85,152.44,80.13,7.67,4.31,20.37,12.24,20,22-.19,4.97-3.76,9.73-8,12-11.48,6.13-28.65-5.5-34-9-29.81-19.5-54.37-21.67-86-39-24.99-13.69-61.39-30.33-96-45-18.75-7.95-48.61-21.84-75-41-19.15-13.91-38.17-31.22-57.97-53.02-14.89-16.39-23.16-31.58-38.03-47.98-8.85-9.76-19.54-21.3-27-39-9.8-23.25-9.03-46.03-10-46-.59.02-1.04,7.95-1,16,.08,17.27-1.2,32.73-1,50,.39,33.27,3.15,62.67,6,95,3.05,34.57,6.14,76.07,5,95-1.74,28.82,2.56,51.13,2,80-.16,8.22-.86,34.12,16,53,13.63,15.26,31.95,18.48,43,21,24.95,5.69,44.62,19.53,72,30,28.15,10.76,63.27,23.54,80,28,45.39,12.1,87.93,19.87,134,37,51.36,19.1,76.57,35.02,76,51-.39,10.93-12.59,21.66-40,33-29.4,12.17-62.12,13.01-93,5-20.31-5.27-45.32-19.17-73-39-23.84-17.08-48.27-36.27-62-50-30.57-30.58-53.13-72.52-59-70-10.68,4.59,42.6,144.01,54,188,2.71,10.45,13.84,45.59,31,72,14.32,22.05,31.91,40.65,55,59,47.87,38.05,173.06,120.97,295,98,44.46-8.37,78.79-24.81,98-39,84.76-62.64,93.94-200.13,125-199,1.69.06,6.85,3.21,12,7,11.74,8.65,20.59,22.77,22.39,26.02,4.3,7.77,16.99,24.41,27.61,37.98,13.36,17.08,27.76,32.1,43,45,18.36,15.54,35.37,26.69,52,35,20.98,10.48,43.51,17.91,67,22,23.02,4.01,46.58,4.71,70,2,19.72-2.28,37.54-6.84,58-14,29.74-10.41,56.28-22.85,82-37,37.27-20.5,75.74-44.96,94-61,27.53-24.18,51.44-52.16,71-83,14.51-22.89,28.6-52.65,41-87,7.76-21.48,13.21-41.33,16-59,2.8-17.74,3.81-38.8,3-62Z"/>
    </g>
  </g>
  <g id="Form_2" data-name="Form 2" class="cls-2">
    <g id="Form_2-2" data-name="Form 2">
      <polygon class="cls-1" points="667.2 1603.18 612.2 1834.18 579.2 2053.18 553.2 2269.18 534.2 2432.18 527.2 2504.18 585.2 2501.18 607.2 2357.18 623.2 2223.18 645.2 2020.18 676.2 1833.18 710.2 1679.18 747.2 1540.18 778.2 1451.18 788.2 1401.18 667.2 1603.18"/>
    </g>
  </g>
</svg>