<?xml version="1.0" encoding="UTF-8"?>
<svg id="Lager_2" data-name="Lager 2" xmlns="http://www.w3.org/2000/svg" viewBox="0 0 385.6 69.6">
  <defs>
    <style>
      .cls-1 {
        fill: #1d1d1b;
        stroke-width: 0px;
      }
    </style>
  </defs>
  <g id="Lager_1-2" data-name="Lager 1">
    <g>
      <path class="cls-1" d="M0,2C4.4,1.1,10.7.6,16.7.6c9.3,0,15.3,1.7,19.5,5.5,3.4,3,5.3,7.6,5.3,12.8,0,8.9-5.6,14.8-12.7,17.2v.3c5.2,1.8,8.3,6.6,9.9,13.6,2.2,9.4,3.8,15.9,5.2,18.5h-9c-1.1-1.9-2.6-7.7-4.5-16.1-2-9.3-5.6-12.8-13.5-13.1h-8.2v29.2H0V2ZM8.7,32.7h8.9c9.3,0,15.2-5.1,15.2-12.8,0-8.7-6.3-12.5-15.5-12.6-4.2,0-7.2.4-8.6.8v24.6Z"/>
      <path class="cls-1" d="M88.7,36.9h-26.2v24.3h29.2v7.3h-37.9V1.1h36.4v7.3h-27.7v21.3h26.2v7.2Z"/>
      <path class="cls-1" d="M150.1,66.3c-3.2,1.6-9.6,3.2-17.8,3.2-19,0-33.3-12-33.3-34.1S113.3,0,134.2,0c8.4,0,13.7,1.8,16,3l-2.1,7.1c-3.3-1.6-8-2.8-13.6-2.8-15.8,0-26.3,10.1-26.3,27.8,0,16.5,9.5,27.1,25.9,27.1,5.3,0,10.7-1.1,14.2-2.8l1.8,6.9Z"/>
      <path class="cls-1" d="M216.5,34.1c0,23.2-14.1,35.5-31.3,35.5s-30.3-13.8-30.3-34.2c0-21.4,13.3-35.4,31.3-35.4s30.3,14.1,30.3,34.1ZM164.2,35.2c0,14.4,7.8,27.3,21.5,27.3s21.6-12.7,21.6-28c0-13.4-7-27.4-21.5-27.4s-21.6,13.3-21.6,28.1Z"/>
      <path class="cls-1" d="M227.8,2c4.4-.9,10.7-1.4,16.7-1.4,9.3,0,15.3,1.7,19.5,5.5,3.4,3,5.3,7.6,5.3,12.8,0,8.9-5.6,14.8-12.7,17.2v.3c5.2,1.8,8.3,6.6,9.9,13.6,2.2,9.4,3.8,15.9,5.2,18.5h-9c-1.1-1.9-2.6-7.7-4.5-16.1-2-9.3-5.6-12.8-13.5-13.1h-8.2v29.2h-8.7V2ZM236.5,32.7h8.9c9.3,0,15.2-5.1,15.2-12.8,0-8.7-6.3-12.5-15.5-12.6-4.2,0-7.2.4-8.6.8v24.6Z"/>
      <path class="cls-1" d="M281.6,2c5.3-.8,11.6-1.4,18.5-1.4,12.5,0,21.4,2.9,27.3,8.4,6,5.5,9.5,13.3,9.5,24.2s-3.4,20-9.7,26.2c-6.3,6.3-16.7,9.7-29.8,9.7-6.2,0-11.4-.3-15.8-.8V2ZM290.3,61.6c2.2.4,5.4.5,8.8.5,18.6,0,28.7-10.4,28.7-28.6.1-15.9-8.9-26-27.3-26-4.5,0-7.9.4-10.2.9v53.2Z"/>
      <path class="cls-1" d="M347,57.9c3.9,2.4,9.6,4.4,15.6,4.4,8.9,0,14.1-4.7,14.1-11.5,0-6.3-3.6-9.9-12.7-13.4-11-3.9-17.8-9.6-17.8-19.1,0-10.5,8.7-18.3,21.8-18.3,6.9,0,11.9,1.6,14.9,3.3l-2.4,7.1c-2.2-1.2-6.7-3.2-12.8-3.2-9.2,0-12.7,5.5-12.7,10.1,0,6.3,4.1,9.4,13.4,13,11.4,4.4,17.2,9.9,17.2,19.8,0,10.4-7.7,19.4-23.6,19.4-6.5,0-13.6-1.9-17.2-4.3l2.2-7.3Z"/>
    </g>
  </g>
</svg>